{"title":"Cop.Out.2010.SWESUB.DVDRip.XviD-Zen_Bud","uid":5751807,"size":730507932,"categoryP":"video","categoryS":"movies","magnet":"?xt=urn:btih:9472eb55ae45153e00f363aa7c56d9acb72694bc&amp;dn=Cop.Out.2010.SWESUB.DVDRip.XviD-Zen_Bud&amp;tr=udp%3A%2F%2Ftracker.openbittorrent.com%3A80&amp;tr=udp%3A%2F%2Fopen.demonii.com%3A1337&amp;tr=udp%3A%2F%2Ftracker.coppersurfer.tk%3A6969&amp;tr=udp%3A%2F%2Fexodus.desync.com%3A6969","seeders":0,"leechers":0,"uploader":"Zen_Bud","files":-1,"time":1281424311,"description":"General\nComplete name                    : Cop.Out.2010.avi\nFormat                           : AVI\nFile size                        : 697 MiB\nDuration                         : 1h 42mn\nOverall bit rate                 : 953 Kbps\n\nVideo\n\nFormat                           : MPEG-4 Visual\nCodec ID/Hint                    : XviD\nDuration                         : 1h 42mn\nBit rate                         : 828 Kbps\nWidth                            : 720 pixels\nHeight                           : 436 pixels\nDisplay aspect ratio             : 2.35:1\nStream size                      : 605 MiB (87%)\nWriting library                  : XviD 1.1.2 (UTC 2006-11-01)\n\nAudio\n\nFormat                           : MPEG Audio\nCodec ID/Hint                    : MP3\nDuration                         : 1h 42mn\nBit rate                         : 112 Kbps\nChannel(s)                       : 2 channels\nSampling rate                    : 48.0 KHz\nStream size                      : 81.9 MiB (12%)\nWriting library                  : LAME3.98\n\n","torrent":{"xt":"urn:btih:9472eb55ae45153e00f363aa7c56d9acb72694bc","amp;dn":"Cop.Out.2010.SWESUB.DVDRip.XviD-Zen_Bud","amp;tr":["udp%3A%2F%2Ftracker.openbittorrent.com%3A80","udp%3A%2F%2Fopen.demonii.com%3A1337","udp%3A%2F%2Ftracker.coppersurfer.tk%3A6969","udp%3A%2F%2Fexodus.desync.com%3A6969"],"infoHash":"9472eb55ae45153e00f363aa7c56d9acb72694bc","infoHashBuffer":{"type":"Buffer","data":[148,114,235,85,174,69,21,62,0,243,99,170,124,86,217,172,183,38,148,188]},"announce":[],"urlList":[]}}